<?xml version="1.0" encoding="UTF-8"?>
<svg width="456" height="456" viewBox="0 0 456 456" fill="none" xmlns="http://www.w3.org/2000/svg">
    <!-- Main Person Icon -->
    <g transform="translate(0, 50)">
        <!-- Main Person (Center) -->
        <circle cx="228" cy="130" r="35" fill="#2196F3"/>
        <path d="M170 250 C170 220, 195 200, 228 200 C261 200, 286 220, 286 250 L286 280 L170 280 Z" fill="#2196F3"/>

        <!-- Left Person -->
        <circle cx="160" cy="150" r="25" fill="#2196F3" opacity="0.6"/>
        <path d="M120 240 C120 215, 137 200, 160 200 C183 200, 200 215, 200 240 L200 265 L120 265 Z" fill="#2196F3" opacity="0.6"/>

        <!-- Right Person -->
        <circle cx="296" cy="150" r="25" fill="#2196F3" opacity="0.6"/>
        <path d="M256 240 C256 215, 273 200, 296 200 C319 200, 336 215, 336 240 L336 265 L256 265 Z" fill="#2196F3" opacity="0.6"/>
    </g>
</svg>