<?xml version="1.0" encoding="UTF-8"?>
<svg width="456" height="456" viewBox="0 0 456 456" fill="none" xmlns="http://www.w3.org/2000/svg">
    <!-- Main Person (Center) -->
    <circle cx="228" cy="180" r="45" fill="white"/>
    <path d="M150 350 C150 310, 185 280, 228 280 C271 280, 306 310, 306 350 L306 380 L150 380 Z" fill="white"/>

    <!-- Left Person -->
    <circle cx="140" cy="200" r="30" fill="white" opacity="0.8"/>
    <path d="M85 330 C85 300, 110 280, 140 280 C170 280, 195 300, 195 330 L195 350 L85 350 Z" fill="white" opacity="0.8"/>

    <!-- Right Person -->
    <circle cx="316" cy="200" r="30" fill="white" opacity="0.8"/>
    <path d="M261 330 C261 300, 286 280, 316 280 C346 280, 371 300, 371 330 L371 350 L261 350 Z" fill="white" opacity="0.8"/>
</svg>